<?xml version="1.0" encoding="UTF-8"?>
<svg version="1.1" xmlns="http://www.w3.org/2000/svg" width="250" height="50">
<path d="M0 0 C82.5 0 165 0 250 0 C250 16.5 250 33 250 50 C167.5 50 85 50 0 50 C0 33.5 0 17 0 0 Z " fill="#FBFBFE" transform="translate(0,0)"/>
<path d="M0 0 C15.51 0 31.02 0 47 0 C47 16.5 47 33 47 50 C-8.11 50 -63.22 50 -120 50 C-120.33 49.34 -120.66 48.68 -121 48 C-120.36610352 47.89453857 -119.73220703 47.78907715 -119.07910156 47.68041992 C-116.13521007 47.18772177 -113.19242933 46.68885798 -110.25 46.1875 C-109.19192139 46.00735352 -108.13384277 45.82720703 -107.04370117 45.64160156 C-101.72568579 44.71672932 -96.51498201 43.70948824 -91.3125 42.25 C-77.92378211 38.78806009 -63.32458383 42.0408524 -50.2409668 45.79077148 C-42.4296121 48.00681957 -34.97620284 48.49587869 -26.91723633 48.44604492 C-24.80387927 48.437465 -22.69317509 48.46652999 -20.58007812 48.49804688 C-10.17524752 48.55221804 -2.22854042 46.87205464 5.55859375 39.69921875 C9.03229787 35.6042017 10 31.40653398 10 26.125 C10 25.09375 10 24.0625 10 23 C10.99 22.34 11.98 21.68 13 21 C12.01 20.01 12.01 20.01 11 19 C12.65 18.67 14.3 18.34 16 18 C15.67 17.01 15.34 16.02 15 15 C15.33 14.34 15.66 13.68 16 13 C15.01 12.67 14.02 12.34 13 12 C13 11.34 13 10.68 13 10 C11.02 9.505 11.02 9.505 9 9 C9 8.67 9 8.34 9 8 C8.01 7.67 7.02 7.34 6 7 C6 5.68 6 4.36 6 3 C2.95086772 1.98888907 2.95086772 1.98888907 0 3 C0 2.01 0 1.02 0 0 Z " fill="#FCFCFF" transform="translate(203,0)"/>
<path d="M0 0 C2.9375 2 2.9375 2 5 4 C4.67 5.65 4.34 7.3 4 9 C1.36 9.33 -1.28 9.66 -4 10 C-3.87822312 11.91466367 -3.87822312 11.91466367 -3 14 C12.22459913 24.37920497 36.66395149 21.18168322 54 18 C56.9601796 17.37786935 59.9126457 16.72553035 62.86523438 16.06835938 C81.69392282 11.9037585 95.55886287 12.63005902 114.25 17.58984375 C123.31425455 19.91593066 132.16760722 20.22867611 141.5 20.3125 C142.57636719 20.34150391 143.65273437 20.37050781 144.76171875 20.40039062 C151.57511133 20.45433344 157.18332475 19.76770137 163 16 C166.16045964 12.27227838 167.59669062 8.64171564 169 4 C170 3 170 3 172.5 2.875 C175 3 175 3 176 4 C175.94563875 10.45539836 174.81798561 15.9807297 170.3046875 20.81640625 C161.47109362 29.11305619 152.83322909 29.60118642 141.125 29.5625 C140.42690216 29.56434296 139.72880432 29.56618591 139.009552 29.56808472 C125.63979339 29.55608502 113.36609375 27.21268647 100.47875977 23.64379883 C90.26438421 20.99085799 80.48173347 21.45147494 70.3125 23.8125 C69.14944336 24.08211548 69.14944336 24.08211548 67.96289062 24.35717773 C64.97282856 25.05739388 61.98394727 25.76205668 58.99902344 26.48388672 C49.10420343 28.8098513 39.46258031 29.30535965 29.3125 29.375 C28.11326904 29.38885742 26.91403809 29.40271484 25.6784668 29.41699219 C13.76740983 29.35500216 1.05835161 27.91511673 -9 21 C-12.00480322 17.78056798 -13.21986584 15.32560094 -13.5 11 C-13.29128664 6.81770541 -11.67345807 4.22387591 -9 1 C-5.89951072 -0.55024464 -3.42105782 -0.28992015 0 0 Z " fill="#5876FE" transform="translate(38,20)"/>
<path d="M0 0 C3.50638501 0.05009121 5.28501901 0.08785945 8.375 1.8125 C10.21655827 5.32023003 10.46143676 8.48834188 9.6875 12.3125 C7.89386089 15.1225346 6.66869065 16.82190468 3.6875 18.3125 C-2.58494619 18.7686779 -2.58494619 18.7686779 -5.01953125 17.2421875 C-7.0026303 14.28251702 -6.6345898 11.6982735 -6.5625 8.1875 C-6.54703125 6.92679688 -6.5315625 5.66609375 -6.515625 4.3671875 C-6.18623924 -0.58626762 -4.55044017 0.11451439 0 0 Z " fill="#5B78FF" transform="translate(141.3125,12.6875)"/>
<path d="M0 0 C1.67542976 0.28604898 3.34385343 0.61781233 5 1 C5.33 2.65 5.66 4.3 6 6 C6.99 6 7.98 6 9 6 C9 4.02 9 2.04 9 0 C10.66611905 -0.042721 12.33382885 -0.04063832 14 0 C15 1 15 1 15.09765625 4.81640625 C15.09098089 6.39846682 15.07901875 7.98051159 15.0625 9.5625 C15.05798828 10.36880859 15.05347656 11.17511719 15.04882812 12.00585938 C15.03700518 14.00393756 15.01906914 16.00197783 15 18 C13.35 18 11.7 18 10 18 C9.67 16.02 9.34 14.04 9 12 C8.01 12 7.02 12 6 12 C6 13.65 6 15.3 6 17 C3.625 17.625 3.625 17.625 1 18 C-1 16 -1 16 -1.23046875 12.55859375 C-1.22647911 11.18482696 -1.21173177 9.81105886 -1.1875 8.4375 C-1.18685547 7.73947266 -1.18621094 7.04144531 -1.18554688 6.32226562 C-1.14031158 1.14031158 -1.14031158 1.14031158 0 0 Z " fill="#9058FF" transform="translate(118,13)"/>
<path d="M0 0 C2.375 -0.125 2.375 -0.125 5 0 C7 2 7 2 7.1953125 4.6015625 C7.17210937 5.59929688 7.14890625 6.59703125 7.125 7.625 C7.10695312 8.62789062 7.08890625 9.63078125 7.0703125 10.6640625 C7.03550781 11.82035156 7.03550781 11.82035156 7 13 C7.66 12.67 8.32 12.34 9 12 C9.46898963 9.1840151 9.46898963 9.1840151 9.625 5.9375 C9.69976562 4.83277344 9.77453125 3.72804688 9.8515625 2.58984375 C9.90054688 1.73519531 9.94953125 0.88054688 10 0 C12.375 -0.125 12.375 -0.125 15 0 C17 2 17 2 17.265625 4.2421875 C17.26046875 5.11101563 17.2553125 5.97984375 17.25 6.875 C17.25515625 7.73867188 17.2603125 8.60234375 17.265625 9.4921875 C16.98544253 12.13743966 16.39425698 13.75119842 15 16 C11.56999354 18.54074553 8.14108223 18.44368738 4 18 C1.796875 16.4296875 1.796875 16.4296875 0 14 C-0.390625 10.546875 -0.390625 10.546875 -0.25 6.75 C-0.21390625 5.48671875 -0.1778125 4.2234375 -0.140625 2.921875 C-0.09421875 1.95765625 -0.0478125 0.9934375 0 0 Z " fill="#5B79FF" transform="translate(153,13)"/>
<path d="M0 0 C6.55279614 0.00669336 6.55279614 0.00669336 9.64453125 2.77734375 C11.31640661 5.44373044 12.56995492 7.62450154 13.3125 10.6875 C12.4375 13.015625 12.4375 13.015625 11.3125 14.6875 C8.9375 14.8125 8.9375 14.8125 6.3125 14.6875 C5.6525 14.0275 4.9925 13.3675 4.3125 12.6875 C3.9825 13.3475 3.6525 14.0075 3.3125 14.6875 C0.625 15.1875 0.625 15.1875 -2.6875 14.6875 C-5.69445321 11.49406907 -7.50766645 8.09619614 -8.0625 3.75 C-7.26883953 -0.61513259 -3.91328574 0.24943619 0 0 Z " fill="#4CA3FD" transform="translate(56.6875,16.3125)"/>
<path d="M0 0 C3.25696479 0.41755959 4.63443291 0.63443291 7 3 C7.66 2.01 8.32 1.02 9 0 C10.32 0.33 11.64 0.66 13 1 C14.00100236 3.70270638 14.1412612 4.68423966 12.9375 7.375 C11.69048862 10.86663186 12.60194371 12.66019886 14 16 C13.34 16.66 12.68 17.32 12 18 C8.70720291 17.68134222 7.13464912 16.45484649 5 14 C4.67 15.32 4.34 16.64 4 18 C2.68 17.67 1.36 17.34 0 17 C-1.01359119 14.18446892 -0.94116923 12.59553843 -0.5 9.5625 C-0.03412 6.24310503 -0.24692519 4.20056794 -1 1 C-0.67 0.67 -0.34 0.34 0 0 Z " fill="#5A77FF" transform="translate(188,13)"/>
<path d="M0 0 C4.29 0 8.58 0 13 0 C13 1.65 13 3.3 13 5 C11.02 5 9.04 5 7 5 C7 5.66 7 6.32 7 7 C8.65 7 10.3 7 12 7 C11.67 8.32 11.34 9.64 11 11 C11.66 11.33 12.32 11.66 13 12 C12.125 16.875 12.125 16.875 11 18 C9.00390625 18.203125 9.00390625 18.203125 6.5625 18.25 C5.75941406 18.27578125 4.95632812 18.3015625 4.12890625 18.328125 C3.42636719 18.21984375 2.72382812 18.1115625 2 18 C-0.45391569 14.31912647 -0.22802759 11.55644412 -0.125 7.3125 C-0.11597656 6.61060547 -0.10695313 5.90871094 -0.09765625 5.18554688 C-0.07413704 3.45688475 -0.03826713 1.72839855 0 0 Z " fill="#935DFF" transform="translate(85,13)"/>
<path d="M0 0 C0.66 0.33 1.32 0.66 2 1 C1.67 2.65 1.34 4.3 1 6 C-1.31 6 -3.62 6 -6 6 C-5.67 7.65 -5.34 9.3 -5 11 C-2.69 11 -0.38 11 2 11 C2.33 12.32 2.66 13.64 3 15 C0.45687431 17.44140066 -0.93948214 17.99243527 -4.5 18.4375 C-8 18 -8 18 -10.375 16.125 C-13.27394168 12.33407627 -13.48603989 9.77939224 -13 5 C-9.25043181 -0.50717828 -6.18827269 -0.60868256 0 0 Z " fill="#925BFF" transform="translate(113,13)"/>
<path d="M0 0 C1.79244141 0.01740234 1.79244141 0.01740234 3.62109375 0.03515625 C5.41740234 0.04869141 5.41740234 0.04869141 7.25 0.0625 C8.17683594 0.07410156 9.10367188 0.08570313 10.05859375 0.09765625 C10.05859375 1.74765625 10.05859375 3.39765625 10.05859375 5.09765625 C8.73859375 5.42765625 7.41859375 5.75765625 6.05859375 6.09765625 C6.05859375 9.72765625 6.05859375 13.35765625 6.05859375 17.09765625 C4.73859375 17.42765625 3.41859375 17.75765625 2.05859375 18.09765625 C0.05859375 16.09765625 0.05859375 16.09765625 -0.13671875 13.71484375 C-0.10191406 12.35746094 -0.10191406 12.35746094 -0.06640625 10.97265625 C-0.04835938 10.06257813 -0.0303125 9.1525 -0.01171875 8.21484375 C0.02308594 7.16683594 0.02308594 7.16683594 0.05859375 6.09765625 C-1.59140625 5.76765625 -3.24140625 5.43765625 -4.94140625 5.09765625 C-3.81895287 0.12679126 -3.81895287 0.12679126 0 0 Z " fill="#9058FF" transform="translate(72.94140625,12.90234375)"/>
<path d="M0 0 C4.70588235 0.70588235 4.70588235 0.70588235 6 2 C6.07205511 3.68608966 6.08386068 5.37500659 6.0625 7.0625 C6.05347656 7.98160156 6.04445312 8.90070312 6.03515625 9.84765625 C6.02355469 10.55792969 6.01195312 11.26820312 6 12 C8.64 12 11.28 12 14 12 C13.125 15.875 13.125 15.875 12 17 C10.19187276 17.15091913 8.37669383 17.22169008 6.5625 17.25 C5.57378906 17.27578125 4.58507812 17.3015625 3.56640625 17.328125 C2.71949219 17.21984375 1.87257812 17.1115625 1 17 C-1.40503353 13.3924497 -1.2396541 11.65163611 -1.1875 7.375 C-1.18105469 6.20710938 -1.17460937 5.03921875 -1.16796875 3.8359375 C-1 1 -1 1 0 0 Z " fill="#5B78FF" transform="translate(172,13)"/>
<path d="M0 0 C2.6484375 0.359375 2.6484375 0.359375 4.484375 2.40625 C5.24621094 3.74429687 5.24621094 3.74429687 6.0234375 5.109375 C6.54679687 5.99109375 7.07015625 6.8728125 7.609375 7.78125 C8.73462307 10.57321889 8.7393165 11.61292668 7.6484375 14.359375 C4.9609375 14.859375 4.9609375 14.859375 1.6484375 14.359375 C-1.35851571 11.16594407 -3.17172895 7.76807114 -3.7265625 3.421875 C-3.19649519 0.50650478 -2.95854936 0.45213711 0 0 Z " fill="#8AD352" transform="translate(52.3515625,16.640625)"/>
<path d="M0 0 C1.98 0 3.96 0 6 0 C6.33 0.66 6.66 1.32 7 2 C7.99 1.67 8.98 1.34 10 1 C10.99 1.66 11.98 2.32 13 3 C12.34 4.32 11.68 5.64 11 7 C10.01 6.34 9.02 5.68 8 5 C5.80670728 4.89939666 5.80670728 4.89939666 3.5 5.25 C2.7265625 5.33765625 1.953125 5.4253125 1.15625 5.515625 C-1.2798442 5.92739503 -1.2798442 5.92739503 -4 8 C-5.32 8 -6.64 8 -8 8 C-7.67 6.68 -7.34 5.36 -7 4 C-6.34 4.66 -5.68 5.32 -5 6 C-4.67 4.68 -4.34 3.36 -4 2 C-3.01 2 -2.02 2 -1 2 C-0.67 1.34 -0.34 0.68 0 0 Z " fill="#BC9AFF" transform="translate(197,0)"/>
<path d="M0 0 C2.625 0.375 2.625 0.375 5 1 C5.625 2.8125 5.625 2.8125 6 5 C5.01 6.485 5.01 6.485 4 8 C2.35 7.67 0.7 7.34 -1 7 C-1.625 4.625 -1.625 4.625 -2 2 C-1.34 1.34 -0.68 0.68 0 0 Z " fill="#FEDA1D" transform="translate(55,9)"/>
<path d="M0 0 C2.625 -0.1875 2.625 -0.1875 5 0 C5.38133299 1.9914056 5.71325582 3.99279077 6 6 C5 7 5 7 1.9375 7.0625 C0.968125 7.041875 -0.00125 7.02125 -1 7 C-1.625 5.1875 -1.625 5.1875 -2 3 C-1.34 2.01 -0.68 1.02 0 0 Z " fill="#FD479A" transform="translate(46,24)"/>
<path d="M0 0 C0.66 0.33 1.32 0.66 2 1 C1.67 2.65 1.34 4.3 1 6 C0.01 6 -0.98 6 -2 6 C-2 5.01 -2 4.02 -2 3 C-3.65 3 -5.3 3 -7 3 C-7 2.34 -7 1.68 -7 1 C-5.5459375 1.0309375 -5.5459375 1.0309375 -4.0625 1.0625 C-1.12534105 1.35618499 -1.12534105 1.35618499 0 0 Z " fill="#E3D6FF" transform="translate(99,17)"/>
<path d="M0 0 C1.32 0 2.64 0 4 0 C4 1.65 4 3.3 4 5 C2.68 5.33 1.36 5.66 0 6 C0 4.02 0 2.04 0 0 Z " fill="#E4E9FF" transform="translate(141,19)"/>
<path d="M0 0 C2.625 -0.1875 2.625 -0.1875 5 0 C5 0.66 5 1.32 5 2 C3.68 2.33 2.36 2.66 1 3 C1.66 3.66 2.32 4.32 3 5 C3 5.66 3 6.32 3 7 C-0.875 5.25 -0.875 5.25 -2 3 C-1.34 2.01 -0.68 1.02 0 0 Z " fill="#B591FF" transform="translate(214,16)"/>
<path d="M0 0 C3 3.75 3 3.75 3 6 C2.01 6.33 1.02 6.66 0 7 C0 6.01 0 5.02 0 4 C-1.98 4 -3.96 4 -6 4 C-2.25 2 -2.25 2 0 2 C0 1.34 0 0.68 0 0 Z " fill="#F4EFFF" transform="translate(98,21)"/>
<path d="M0 0 C2.475 0.99 2.475 0.99 5 2 C4.34 3.32 3.68 4.64 3 6 C1.68 5.34 0.36 4.68 -1 4 C-0.67 2.68 -0.34 1.36 0 0 Z " fill="#B28BFF" transform="translate(205,1)"/>
<path d="M0 0 C2.31 0 4.62 0 7 0 C5.515 1.98 5.515 1.98 4 4 C3.01 3.67 2.02 3.34 1 3 C0.67 2.01 0.34 1.02 0 0 Z " fill="#8EC6F8" transform="translate(55,17)"/>
<path d="M0 0 C0.99 0.33 1.98 0.66 3 1 C3 2.32 3 3.64 3 5 C1.68 5.33 0.36 5.66 -1 6 C-1.33 4.35 -1.66 2.7 -2 1 C-1.34 0.67 -0.68 0.34 0 0 Z " fill="#B793FF" transform="translate(214,9)"/>
<path d="M0 0 C0.66 0 1.32 0 2 0 C2 1.65 2 3.3 2 5 C0.35 5.33 -1.3 5.66 -3 6 C-3 5.34 -3 4.68 -3 4 C-2.01 4 -1.02 4 0 4 C0 2.68 0 1.36 0 0 Z " fill="#9F6FFF" transform="translate(122,25)"/>
</svg>
